<svg width="35" height="35" viewBox="0 0 35 35" fill="none" xmlns="http://www.w3.org/2000/svg">
<path fill-rule="evenodd" clip-rule="evenodd" d="M17.5 11.6666C17.5 14.0828 15.5412 16.0416 13.125 16.0416C10.7088 16.0416 8.75 14.0828 8.75 11.6666C8.75 9.25034 10.7088 7.29159 13.125 7.29159C15.5412 7.29159 17.5 9.25034 17.5 11.6666ZM11.6667 11.6666C11.6667 10.8612 12.3196 10.2083 13.125 10.2083C13.9304 10.2083 14.5833 10.8612 14.5833 11.6666C14.5833 12.472 13.9304 13.1249 13.125 13.1249C12.3196 13.1249 11.6667 12.472 11.6667 11.6666Z" fill="#002340"/>
<path fill-rule="evenodd" clip-rule="evenodd" d="M30.625 7.29159H26.25L26.25 5.83325C26.25 3.41701 24.2912 1.45825 21.875 1.45825H4.375C1.95875 1.45825 0 3.41701 0 5.83325V17.4999C0 19.9162 1.95875 21.8749 4.375 21.8749L4.375 26.9791C4.375 27.5145 4.9855 27.805 5.3985 27.4949C5.41608 27.4817 5.43329 27.4675 5.45009 27.4521L8.61328 24.5529L8.85993 24.3122C9.3045 26.2571 11.0453 27.7083 13.125 27.7083H23.6427L26.3867 30.3862L29.5499 33.2854C29.5667 33.3008 29.5839 33.3151 29.6015 33.3283C30.0145 33.6383 30.625 33.3479 30.625 32.8124V27.7083C33.0412 27.7083 35 25.7495 35 23.3333V11.6666C35 9.25034 33.0412 7.29159 30.625 7.29159ZM7.29167 21.7673L10.1699 18.9583H21.875C22.6804 18.9583 23.3333 18.3053 23.3333 17.4999V5.83325C23.3333 5.02784 22.6804 4.37492 21.875 4.37492H4.375C3.56958 4.37492 2.91667 5.02784 2.91667 5.83325V17.4999C2.91667 18.3053 3.56958 18.9583 4.375 18.9583H7.29167L7.29167 21.7673ZM11.6667 21.8749H32.0833L32.0833 23.3333C32.0833 24.1387 31.4304 24.7916 30.625 24.7916H27.7083L27.7083 27.6006L24.8301 24.7916H13.125C12.3196 24.7916 11.6667 24.1387 11.6667 23.3333L11.6667 21.8749ZM32.0833 18.9583H26.0011C26.1623 18.5021 26.25 18.0113 26.25 17.4999L26.25 16.0416H32.0833V18.9583ZM32.0833 13.1249L32.0833 11.6666C32.0833 10.8612 31.4304 10.2083 30.625 10.2083H26.25L26.25 13.1249H32.0833Z" fill="#002340"/>
</svg>
