<svg width="35" height="34" viewBox="0 0 35 34" fill="none" xmlns="http://www.w3.org/2000/svg">
<g clip-path="url(#clip0_550_6941)">
<path d="M10.2083 14H16.0417V11.2H10.2083V14Z" fill="#002340"/>
<path d="M23.3334 28.5798L29.7708 22.3999L27.7084 20.42L23.3334 24.62L21.875 23.22L19.8126 25.1999L23.3334 28.5798Z" fill="#002340"/>
<path fill-rule="evenodd" clip-rule="evenodd" d="M8.75 32.2H19.5306C21.067 33.0887 22.8672 33.6 24.7917 33.6C30.4296 33.6 35 29.2124 35 23.8C35 20.4698 33.2697 17.5275 30.625 15.7566V8.5006C30.625 7.3557 30.1381 6.26042 29.2771 5.46825L24.6025 1.16765C23.788 0.418329 22.7035 0 21.5754 0H8.75C6.33375 0 4.375 1.8804 4.375 4.2V28C4.375 30.3196 6.33375 32.2 8.75 32.2ZM27.7083 14.4058V11.2H20.4167C19.6113 11.2 18.9583 10.5732 18.9583 9.8V2.8H8.75C7.94459 2.8 7.29167 3.4268 7.29167 4.2V28C7.29167 28.7732 7.94458 29.4 8.75 29.4H16.4131C15.523 28.175 14.917 26.7457 14.6867 25.2H10.2083V22.4H14.6867C14.834 21.4114 15.135 20.4704 15.5657 19.6H10.2083V16.8H17.6473C19.4885 15.0679 22.0102 14 24.7917 14C25.8052 14 26.7842 14.1418 27.7083 14.4058ZM27.7046 8.4H21.875V2.82985C22.1399 2.88323 22.3862 3.0068 22.5845 3.18922L27.259 7.48982C27.5207 7.73057 27.6787 8.05531 27.7046 8.4ZM24.7917 30.8C28.8187 30.8 32.0833 27.666 32.0833 23.8C32.0833 19.934 28.8187 16.8 24.7917 16.8C20.7646 16.8 17.5 19.934 17.5 23.8C17.5 27.666 20.7646 30.8 24.7917 30.8Z" fill="#002340"/>
</g>
<defs>
<clipPath id="clip0_550_6941">
<rect width="35" height="33.6" fill="white"/>
</clipPath>
</defs>
</svg>
