<svg width="35" height="35" viewBox="0 0 35 35" fill="none" xmlns="http://www.w3.org/2000/svg">
<path d="M13.1248 16.0417H5.83317C4.22463 16.0417 2.9165 14.7336 2.9165 13.1251V5.83342C2.9165 4.22341 4.22463 2.91675 5.83317 2.91675H13.1248C14.7334 2.91675 16.0415 4.22341 16.0415 5.83342V13.1251C16.0415 14.7336 14.7334 16.0417 13.1248 16.0417ZM5.83317 5.83342V13.1251H13.1263L13.1248 5.83342H5.83317Z" fill="#002340"/>
<path d="M29.1663 16.0417H21.8747C20.2661 16.0417 18.958 14.7336 18.958 13.1251V5.83342C18.958 4.22341 20.2661 2.91675 21.8747 2.91675H29.1663C30.7749 2.91675 32.083 4.22341 32.083 5.83342V13.1251C32.083 14.7336 30.7749 16.0417 29.1663 16.0417ZM21.8747 5.83342V13.1251H29.1678L29.1663 5.83342H21.8747Z" fill="#002340"/>
<path d="M13.1248 32.0835H5.83317C4.22463 32.0835 2.9165 30.7754 2.9165 29.1668V21.8752C2.9165 20.2652 4.22463 18.9585 5.83317 18.9585H13.1248C14.7334 18.9585 16.0415 20.2652 16.0415 21.8752V29.1668C16.0415 30.7754 14.7334 32.0835 13.1248 32.0835ZM5.83317 21.8752V29.1668H13.1263L13.1248 21.8752H5.83317Z" fill="#002340"/>
<path d="M29.1663 32.0835H21.8747C20.2661 32.0835 18.958 30.7754 18.958 29.1668V21.8752C18.958 20.2652 20.2661 18.9585 21.8747 18.9585H29.1663C30.7749 18.9585 32.083 20.2652 32.083 21.8752V29.1668C32.083 30.7754 30.7749 32.0835 29.1663 32.0835ZM21.8747 21.8752V29.1668H29.1678L29.1663 21.8752H21.8747Z" fill="#002340"/>
</svg>
